<svg width="101" height="101" viewBox="0 0 101 101" fill="none" xmlns="http://www.w3.org/2000/svg">
<g clip-path="url(#clip0_922_49959)">
<path d="M11.2141 43.3008H18.357C19.3042 43.3008 20.2126 43.6771 20.8824 44.3468C21.5522 45.0166 21.9284 45.925 21.9284 46.8722V64.7294C21.9284 65.6766 21.5522 66.585 20.8824 67.2547C20.2126 67.9245 19.3042 68.3008 18.357 68.3008H11.2141C9.31974 68.3008 7.50293 67.5482 6.16338 66.2087C4.82384 64.8691 4.07129 63.0523 4.07129 61.1579V50.4436C4.07129 48.5492 4.82384 46.7324 6.16338 45.3929C7.50293 44.0533 9.31974 43.3008 11.2141 43.3008V43.3008Z" stroke="#191919" stroke-width="7.14286" stroke-linecap="round" stroke-linejoin="round"/>
<path d="M89.7859 68.3008H82.643C81.6958 68.3008 80.7874 67.9245 80.1176 67.2547C79.4478 66.585 79.0716 65.6766 79.0716 64.7294V46.8722C79.0716 45.925 79.4478 45.0166 80.1176 44.3468C80.7874 43.6771 81.6958 43.3008 82.643 43.3008H89.7859C91.6803 43.3008 93.4971 44.0533 94.8366 45.3929C96.1762 46.7324 96.9287 48.5492 96.9287 50.4436V61.1579C96.9287 63.0523 96.1762 64.8691 94.8366 66.2087C93.4971 67.5482 91.6803 68.3008 89.7859 68.3008V68.3008Z" stroke="#191919" stroke-width="7.14286" stroke-linecap="round" stroke-linejoin="round"/>
<path d="M68.3574 87.9436C72.1462 87.9436 75.7799 86.4385 78.4589 83.7594C81.138 81.0804 82.6431 77.4467 82.6431 73.6579V68.3008" stroke="#191919" stroke-width="7.14286" stroke-linecap="round" stroke-linejoin="round"/>
<path d="M59.428 79.0156C61.796 79.0156 64.067 79.9563 65.7415 81.6307C67.4159 83.3052 68.3566 85.5762 68.3566 87.9442C68.3566 90.3122 67.4159 92.5832 65.7415 94.2577C64.067 95.9321 61.796 96.8728 59.428 96.8728H48.7137C46.3457 96.8728 44.0747 95.9321 42.4003 94.2577C40.7258 92.5832 39.7852 90.3122 39.7852 87.9442C39.7852 85.5762 40.7258 83.3052 42.4003 81.6307C44.0747 79.9563 46.3457 79.0156 48.7137 79.0156H59.428Z" stroke="#191919" stroke-width="7.14286" stroke-linecap="round" stroke-linejoin="round"/>
<path d="M18.3574 43.3013V36.1585C18.3574 27.6337 21.7439 19.458 27.7718 13.43C33.7998 7.40209 41.9755 4.01562 50.5003 4.01562C59.0251 4.01563 67.2008 7.40209 73.2287 13.43C79.2567 19.458 82.6431 27.6337 82.6431 36.1585V43.3013" stroke="#191919" stroke-width="7.14286" stroke-linecap="round" stroke-linejoin="round"/>
<path d="M39.7852 29.0156V39.7299" stroke="#191919" stroke-width="7.14286" stroke-linecap="round" stroke-linejoin="round"/>
<path d="M61.2139 29.0156V39.7299" stroke="#191919" stroke-width="7.14286" stroke-linecap="round" stroke-linejoin="round"/>
<path d="M39.7852 54.0156C39.7852 63.5156 61.2137 63.5156 61.2137 54.0156" stroke="#191919" stroke-width="7.14286" stroke-linecap="round" stroke-linejoin="round"/>
</g>
<defs>
<clipPath id="clip0_922_49959">
<rect width="100" height="100" fill="white" transform="translate(0.5 0.445312)"/>
</clipPath>
</defs>
</svg>
