<svg width="100" height="94" viewBox="0 0 100 94" fill="none" xmlns="http://www.w3.org/2000/svg">
<path d="M50.0004 25.2879C55.9178 25.2879 60.7147 20.491 60.7147 14.5737C60.7147 8.65632 55.9178 3.85938 50.0004 3.85938C44.0831 3.85938 39.2861 8.65632 39.2861 14.5737C39.2861 20.491 44.0831 25.2879 50.0004 25.2879Z" stroke="#191919" stroke-width="7.14286" stroke-linecap="round" stroke-linejoin="round"/>
<path d="M14.2866 89.5731C20.2039 89.5731 25.0008 84.7762 25.0008 78.8588C25.0008 72.9415 20.2039 68.1445 14.2866 68.1445C8.36921 68.1445 3.57227 72.9415 3.57227 78.8588C3.57227 84.7762 8.36921 89.5731 14.2866 89.5731Z" stroke="#191919" stroke-width="7.14286" stroke-linecap="round" stroke-linejoin="round"/>
<path d="M50.0004 89.5731C55.9178 89.5731 60.7147 84.7762 60.7147 78.8588C60.7147 72.9415 55.9178 68.1445 50.0004 68.1445C44.0831 68.1445 39.2861 72.9415 39.2861 78.8588C39.2861 84.7762 44.0831 89.5731 50.0004 89.5731Z" stroke="#191919" stroke-width="7.14286" stroke-linecap="round" stroke-linejoin="round"/>
<path d="M85.7153 89.5731C91.6326 89.5731 96.4295 84.7762 96.4295 78.8588C96.4295 72.9415 91.6326 68.1445 85.7153 68.1445C79.7979 68.1445 75.001 72.9415 75.001 78.8588C75.001 84.7762 79.7979 89.5731 85.7153 89.5731Z" stroke="#191919" stroke-width="7.14286" stroke-linecap="round" stroke-linejoin="round"/>
<path d="M14.2861 68.1434V53.8577C14.2861 51.9633 15.0387 50.1465 16.3782 48.8069C17.7178 47.4674 19.5346 46.7148 21.429 46.7148H78.5719C80.4663 46.7148 82.2831 47.4674 83.6226 48.8069C84.9622 50.1465 85.7147 51.9633 85.7147 53.8577V68.1434" stroke="#191919" stroke-width="7.14286" stroke-linecap="round" stroke-linejoin="round"/>
<path d="M50.001 25.2891V68.1462" stroke="#191919" stroke-width="7.14286" stroke-linecap="round" stroke-linejoin="round"/>
</svg>
