<svg width="100" height="101" viewBox="0 0 100 101" fill="none" xmlns="http://www.w3.org/2000/svg">
<g clip-path="url(#clip0_922_49927)">
<path d="M52.5713 96.538C50.9165 97.1765 49.0833 97.1765 47.4285 96.538V96.538C34.5161 91.5807 23.4113 82.823 15.5809 71.4218C7.75054 60.0205 3.56296 46.5121 3.57133 32.6808V14.038C3.56742 13.2558 3.81534 12.4932 4.27843 11.8629C4.74153 11.2325 5.3952 10.768 6.14276 10.538C34.7633 2.03943 65.2365 2.03943 93.8571 10.538C94.6046 10.768 95.2583 11.2325 95.7214 11.8629C96.1845 12.4932 96.4324 13.2558 96.4285 14.038V32.6808C96.4369 46.5121 92.2493 60.0205 84.4189 71.4218C76.5885 82.823 65.4837 91.5807 52.5713 96.538V96.538Z" stroke="#191919" stroke-width="7.14286" stroke-linecap="round" stroke-linejoin="round"/>
</g>
<defs>
<clipPath id="clip0_922_49927">
<rect width="100" height="100" fill="white" transform="translate(0 0.609375)"/>
</clipPath>
</defs>
</svg>
