<svg width="45" height="60" viewBox="0 0 45 60" fill="none" xmlns="http://www.w3.org/2000/svg">
<g clip-path="url(#clip0_2051_11436)">
<path d="M23.6574 57.5572C22.9128 57.9403 22.0878 57.9403 21.3432 57.5572C15.5326 54.5828 10.5354 49.3282 7.01176 42.4874C3.48808 35.6467 1.60367 27.5416 1.60744 19.2429V8.05716C1.60568 7.58787 1.71724 7.13029 1.92564 6.7521C2.13403 6.3739 2.42818 6.09518 2.76459 5.95716C15.6438 0.85803 29.3568 0.85803 42.236 5.95716C42.5724 6.09518 42.8666 6.3739 43.075 6.7521C43.2834 7.13029 43.3949 7.58787 43.3932 8.05716V19.2429C43.3969 27.5416 41.5125 35.6467 37.9888 42.4874C34.4652 49.3282 29.468 54.5828 23.6574 57.5572Z" fill="#373867" stroke="#191919" stroke-width="7.14286" stroke-linecap="round" stroke-linejoin="round"/>
<g clip-path="url(#clip1_2051_11436)">
<path d="M22.5 41.6619C29.2671 41.6619 34.753 34.7132 34.753 26.1415C34.753 17.5698 29.2671 10.6211 22.5 10.6211C15.7329 10.6211 10.2471 17.5698 10.2471 26.1415C10.2471 34.7132 15.7329 41.6619 22.5 41.6619Z" fill="#AACE9B" stroke="#191919" stroke-width="7.14286" stroke-linecap="round" stroke-linejoin="round"/>
<path d="M22.5 20.1719V26.1413L27.2881 33.209" fill="#AACE9B"/>
<path d="M22.5 20.1719V26.1413L27.2881 33.209" stroke="#191919" stroke-width="7.14286" stroke-linecap="round" stroke-linejoin="round"/>
</g>
</g>
<defs>
<clipPath id="clip0_2051_11436">
<rect width="45" height="60" fill="white"/>
</clipPath>
<clipPath id="clip1_2051_11436">
<rect width="26.391" height="33.4286" fill="white" transform="translate(9.30469 9.42773)"/>
</clipPath>
</defs>
</svg>
