<svg width="100" height="101" viewBox="0 0 100 101" fill="none" xmlns="http://www.w3.org/2000/svg">
<g clip-path="url(#clip0_922_49941)">
<path d="M41.5572 78.6881L57.1429 94.2524C58.1104 95.2199 59.3092 95.9241 60.6254 96.2982C61.9416 96.6722 63.3315 96.7036 64.6633 96.3895C65.9951 96.0753 67.2244 95.426 68.2347 94.5032C69.245 93.5804 70.0026 92.4146 70.4358 91.1167L96.0143 14.3095C96.4867 12.8957 96.5558 11.3782 96.2138 9.92735C95.8719 8.47646 95.1324 7.14956 94.0783 6.09552C93.0243 5.04147 91.6974 4.30198 90.2465 3.96002C88.7956 3.61806 87.2781 3.68715 85.8643 4.15953L9.05719 29.7595C7.76333 30.1943 6.60167 30.9518 5.68199 31.9604C4.7623 32.969 4.11494 34.1954 3.80107 35.5238C3.48721 36.8522 3.5172 38.2387 3.88822 39.5522C4.25924 40.8658 4.95903 42.0631 5.92148 43.031L25.5 62.631L24.8358 87.381L41.5572 78.6881Z" stroke="#191919" stroke-width="7.14286" stroke-linecap="round" stroke-linejoin="round"/>
<path d="M93.7214 5.75781L25.5 62.6292" stroke="#191919" stroke-width="7.14286" stroke-linecap="round" stroke-linejoin="round"/>
</g>
<defs>
<clipPath id="clip0_922_49941">
<rect width="100" height="100" fill="white" transform="translate(0 0.171875)"/>
</clipPath>
</defs>
</svg>
